<?xml version="1.0" encoding="utf-8"?>
<!-- Generator: Adobe Illustrator 26.0.1, SVG Export Plug-In . SVG Version: 6.00 Build 0)  -->
<svg version="1.1" id="Layer_1" xmlns="http://www.w3.org/2000/svg" xmlns:xlink="http://www.w3.org/1999/xlink" x="0px" y="0px"
	 viewBox="0 0 648 432" style="enable-background:new 0 0 648 432;" xml:space="preserve">
<style type="text/css">
	.st0{fill:#64C7F3;}
	.st1{fill:none;stroke:#E88C00;stroke-width:25;stroke-miterlimit:10;}
	.st2{fill:#CC7D00;stroke:#F39200;stroke-width:13;stroke-miterlimit:10;}
</style>
<circle class="st0" cx="317.9" cy="213.2" r="175.4"/>
<circle class="st1" cx="317.8" cy="212.4" r="176.2"/>
<g>
	<path class="st2" d="M179,212.7v-8.2l57.1-37v9.5l-48.9,31.6v0.3l48.9,31.6v9.4L179,212.7z"/>
	<path class="st2" d="M334.7,256.9H327l29.5-115.7h7.9L334.7,256.9z"/>
	<path class="st2" d="M286.8,251.6c-4.4,0-7.7-3.8-7.7-10c0-5.5,3.3-9.7,7.9-9.7c4.6,0,7.8,4.2,7.8,9.7c0,6.2-3.2,10-7.8,10H286.8z"
		/>
	<path class="st2" d="M399.2,249.7v-9.4l49-31.6v-0.3l-49-31.6v-9.5l57.1,37v8.2L399.2,249.7z"/>
</g>
</svg>
