<?xml version="1.0" encoding="utf-8"?>
<!-- Generator: Adobe Illustrator 26.0.1, SVG Export Plug-In . SVG Version: 6.00 Build 0)  -->
<svg version="1.1" id="Layer_1" xmlns="http://www.w3.org/2000/svg" xmlns:xlink="http://www.w3.org/1999/xlink" x="0px" y="0px"
	 viewBox="0 0 648 432" style="enable-background:new 0 0 648 432;" xml:space="preserve">
<style type="text/css">
	.st0{fill:#66C6F2;}
	.st1{fill:none;stroke:#E61F5C;stroke-width:25;stroke-miterlimit:10;}
	.st2{fill:#592464;}
	.st3{fill:#EC5F99;}
	.st4{fill:#D73880;}
	.st5{fill:#CA3680;}
	.st6{fill:#BB0E77;}
	.st7{fill:#EA538D;}
	.st8{fill:none;stroke:#000000;stroke-miterlimit:10;}
	.st9{fill:#D3117B;}
	.st10{fill:#E7216A;}
	.st11{fill:#D15292;}
</style>
<circle class="st0" cx="317.67" cy="218.13" r="175.41"/>
<circle class="st1" cx="317.6" cy="217.34" r="176.2"/>
<g id="XMLID_00000104664536207735690020000007098804043710765196_">
	<g>
		<polygon class="st2" points="266.69,342.54 254.01,357.21 257.92,337.3 258.36,337.42 266.35,342.18 		"/>
		<path class="st3" d="M290.72,314.74l-24.03,27.8l-0.34-0.36l-7.99-4.77l-0.44-0.12l7.47-38.06l0.45-0.94
			c5.28-1.82,8.02-0.89,9.54,0.37c0.41,0.35,0.75,0.71,1.01,1.09c1.22,1.69,1.32,3.64,3.48,5.06c1.99,1.33,3.55,0.72,5.26,0.92
			c0.66,0.08,1.3,0.25,2.01,0.69c1.34,0.84,3.07,2.68,4.04,7.37L290.72,314.74z"/>
		<path class="st4" d="M388.32,110.86L291.17,313.8c-0.97-4.69-2.7-6.53-4.04-7.37c-0.72-0.44-1.36-0.62-2.01-0.69l95.54-199.58
			L388.32,110.86z"/>
		<path class="st5" d="M380.66,106.16l-95.54,199.58c-1.7-0.19-3.26,0.41-5.26-0.92c-2.15-1.42-2.26-3.37-3.48-5.06l0.01-0.01
			l95.3-199.09L380.66,106.16z"/>
		<path class="st4" d="M276.4,299.75l-0.01,0.01c-0.25-0.38-0.59-0.74-1.01-1.09c-1.52-1.26-4.26-2.2-9.54-0.37
			c32.38-67.66,64.77-135.31,97.15-202.97l0.01,0.01l8.7,5.32L276.4,299.75z"/>
		<path class="st6" d="M390.29,106.73l-1.97,4.12l-7.66-4.7l-8.96-5.5l-8.7-5.32l-0.01-0.01c0.65-1.36,1.32-2.74,1.97-4.1
			L390.29,106.73z"/>
		<path class="st7" d="M395.36,96.16l-5.07,10.57l-25.33-15.5c1.68-3.54,3.38-7.07,5.06-10.59c3.4-7.09,11.35-9.67,17.75-5.75
			l2.15,1.32C396.32,80.14,398.75,89.05,395.36,96.16z"/>
	</g>
	<g>
		<path class="st8" d="M291.17,313.8c-0.97-4.69-2.7-6.53-4.04-7.37c-0.72-0.44-1.36-0.62-2.01-0.69c-1.7-0.19-3.26,0.41-5.26-0.92
			c-2.15-1.42-2.26-3.37-3.48-5.06c-0.25-0.38-0.59-0.74-1.01-1.09c-1.52-1.26-4.26-2.2-9.54-0.37
			c32.38-67.66,64.77-135.31,97.15-202.97c0.65-1.36,1.32-2.74,1.97-4.1c1.68-3.54,3.38-7.07,5.06-10.59
			c3.4-7.09,11.35-9.67,17.75-5.75l2.15,1.32c6.4,3.93,8.84,12.85,5.45,19.95l-5.07,10.57l-1.97,4.12L291.17,313.8z"/>
		<line class="st8" x1="364.96" y1="91.23" x2="390.29" y2="106.73"/>
		<polyline class="st8" points="363,95.34 371.7,100.66 380.66,106.16 388.32,110.86 		"/>
		<line class="st8" x1="380.66" y1="106.16" x2="285.12" y2="305.74"/>
		<line class="st8" x1="371.7" y1="100.66" x2="276.4" y2="299.75"/>
		<polyline class="st8" points="290.72,314.74 266.69,342.54 254.01,357.21 		"/>
		<polyline class="st8" points="265.39,299.24 257.92,337.3 254.01,357.21 		"/>
		<line class="st8" x1="258.36" y1="337.42" x2="266.35" y2="342.18"/>
	</g>
</g>
<g id="XMLID_00000098213231882079120220000016004748723566928007_">
	<g>
		<path class="st9" d="M251.84,73.18c2.99-0.64,6.84,1.54,8.01,5.2c35.68,73.72,71.39,147.45,107.08,221.17l-23.06,7.52
			c-31.72-75.12-63.48-150.27-95.23-225.39C246.67,77.86,248.58,73.88,251.84,73.18z"/>
		<path class="st10" d="M366.93,299.55c0.72,1.47,1.43,2.96,2.15,4.44l-23.32,7.58c-0.63-1.51-1.27-2.99-1.9-4.5L366.93,299.55z"/>
		<path class="st11" d="M369.08,303.99c7.82,5.18,10.87,10.23,12.21,13.94c2.82,7.87-1.25,12.56,1.39,20.27
			c1.34,3.89,4.68,9.44,14.2,15.1c-4.07,0.8-16.57,2.71-30.06-3.8c-4.28-2.06-14.87-7.13-19.76-18.37
			c-3.98-9.14-2.06-16.97-1.29-19.55L369.08,303.99z"/>
	</g>
	<g>
		<path class="st8" d="M345.77,311.57l23.32-7.58c-0.72-1.47-1.43-2.96-2.15-4.44c-35.68-73.72-71.39-147.45-107.08-221.17
			c-1.18-3.66-5.03-5.84-8.01-5.2c-3.25,0.7-5.16,4.68-3.2,8.49c31.75,75.12,63.5,150.27,95.23,225.39
			C344.5,308.57,345.13,310.06,345.77,311.57z"/>
		<line class="st8" x1="343.86" y1="307.07" x2="366.93" y2="299.55"/>
		<path class="st8" d="M369.08,303.99c7.82,5.18,10.87,10.23,12.21,13.94c2.82,7.87-1.25,12.56,1.39,20.27
			c1.34,3.89,4.68,9.44,14.2,15.1c-4.07,0.8-16.57,2.71-30.06-3.8c-4.28-2.06-14.87-7.13-19.76-18.37
			c-3.98-9.14-2.06-16.97-1.29-19.55"/>
	</g>
</g>
</svg>
